<?xml version="1.0" standalone="no"?>
<!DOCTYPE svg PUBLIC "-//W3C//DTD SVG 20010904//EN"
 "http://www.w3.org/TR/2001/REC-SVG-20010904/DTD/svg10.dtd">
<svg version="1.0" xmlns="http://www.w3.org/2000/svg"
 width="100.000000pt" height="100.000000pt" viewBox="0 0 100.000000 100.000000"
 preserveAspectRatio="xMidYMid meet">
<metadata>
Created by potrace 1.11, written by Peter Selinger 2001-2013
</metadata>
<g transform="translate(0.000000,100.000000) scale(0.100000,-0.100000)"
fill="#000000" stroke="none">
<path d="M531 604 c-11 -14 -18 -31 -14 -38 5 -7 9 -4 11 9 4 24 29 45 54 45
27 0 23 -53 -6 -87 -21 -24 -25 -26 -31 -11 -4 9 1 28 11 43 9 14 14 28 11 31
-5 6 -57 -87 -57 -102 0 -3 6 -1 14 5 7 6 21 9 29 5 11 -4 23 5 37 28 12 20
20 27 20 16 0 -23 18 -32 35 -18 16 13 20 3 7 -15 -4 -5 -58 -27 -120 -48
-113 -38 -308 -125 -299 -133 2 -2 51 18 108 45 141 67 291 119 297 102 3 -9
7 -8 16 4 6 8 43 22 81 29 39 8 59 14 45 15 -14 0 -43 -4 -65 -9 -22 -5 -41
-7 -43 -5 -2 2 3 16 12 32 10 18 15 22 16 11 0 -25 103 -20 127 6 18 18 17 19
-7 2 -29 -19 -39 -20 -36 -3 3 19 16 37 29 37 6 0 2 -7 -9 -15 -10 -8 -14 -15
-9 -15 13 0 35 21 35 33 0 18 -45 1 -55 -20 -5 -13 -13 -23 -16 -23 -4 0 -5
10 -2 23 5 20 2 19 -21 -8 l-27 -30 7 35 6 35 -26 -34 c-23 -31 -26 -32 -26
-13 0 27 -37 31 -48 5 -5 -14 -8 -9 -12 17 -7 47 -47 54 -79 14z m132 -44 c3
-11 1 -18 -3 -15 -5 3 -11 1 -15 -5 -9 -14 -25 -12 -25 3 0 14 19 37 31 37 4
0 9 -9 12 -20z"/>
<path d="M183 555 c-3 -9 -20 -23 -37 -32 -45 -22 -76 -53 -76 -76 0 -16 5
-18 30 -12 34 7 34 7 19 -31 -10 -27 -9 -27 9 -11 11 10 26 15 35 11 11 -4 22
4 34 23 11 18 25 27 36 25 10 -2 24 2 32 8 18 15 18 14 6 -28 -6 -20 -6 -30 0
-27 5 4 9 13 9 21 0 9 5 25 11 36 9 16 13 18 19 7 7 -10 11 -10 24 0 9 8 16
10 17 5 1 -13 18 29 18 46 0 8 -9 0 -21 -19 -23 -36 -38 -28 -18 9 20 38 3 33
-24 -7 -22 -32 -26 -34 -26 -15 0 24 -11 27 -40 12 -15 -8 -20 -6 -25 10 -3
11 -11 20 -17 20 -6 0 -8 9 -5 20 6 23 -1 27 -10 5z m-35 -81 c-9 -21 -21 -30
-40 -31 -16 -1 -28 1 -28 5 1 21 73 79 78 64 1 -5 -3 -22 -10 -38z m60 25 c4
-20 -26 -89 -38 -89 -6 0 -10 5 -10 11 0 5 -4 7 -10 4 -14 -9 -13 -3 10 50 19
45 42 56 48 24z m62 -13 c0 -14 -29 -31 -38 -21 -6 6 18 35 29 35 5 0 9 -6 9
-14z"/>
<path d="M430 539 c-15 -26 -7 -34 19 -19 27 14 28 -1 1 -17 -10 -7 -27 -10
-36 -6 -11 4 -15 2 -12 -7 7 -22 21 -21 50 3 21 16 26 28 22 45 -8 28 -30 29
-44 1z m30 7 c0 -2 -8 -10 -17 -17 -16 -13 -17 -12 -4 4 13 16 21 21 21 13z"/>
<path d="M811 536 c11 -10 129 -16 129 -6 0 6 -27 10 -67 10 -36 0 -64 -2 -62
-4z"/>
</g>
</svg>
